# xmcd
#
# Track frame offsets: 
#        150
#        6893
#        24593
#        50899
#        64247
#        78918
#        89286
#
# Disc length: 1342 seconds
#
# Revision: 0
# Processed by: cddbd v1.5.2PL0 Copyright (c) Steve Scherf et al.
# Submitted via: ExactAudioCopy v0.95a5
#
DISCID=53053c07
DTITLE=Various Artist - Satanic Rebelmageddon
DYEAR=2004
DGENRE=Death Metal
TTITLE0=Obscure - Antichristian Crusade
TTITLE1=Obscure - Beyond The Light... Of Christ
TTITLE2=Obscure - Fire Over Vatican
TTITLE3=Pandemic Genocide - The Empire Of Insanity
TTITLE4=Pandemic Genocide - Possession
TTITLE5=Pandemic Genocide - The Highest Degree Of Slaughter
TTITLE6=Pandemic Genocide - I'm Calling Death
EXTD=
EXTT0=
EXTT1=
EXTT2=
EXTT3=
EXTT4=
EXTT5=
EXTT6=
PLAYORDER=
